<?xml version="1.0" encoding="utf-8"?><svg xmlns="http://www.w3.org/2000/svg" xmlns:xlink="http://www.w3.org/1999/xlink"><symbol viewBox="0 0 22 4" id="icon_actions" xmlns="http://www.w3.org/2000/svg"><path fill-rule="evenodd" clip-rule="evenodd" d="M1.833 0C.821 0 0 .895 0 2s.82 2 1.833 2 1.834-.895 1.834-2-.821-2-1.834-2zM11 0C9.988 0 9.167.895 9.167 2S9.987 4 11 4c1.012 0 1.833-.895 1.833-2S12.013 0 11 0zm9.167 0c-1.013 0-1.834.895-1.834 2s.821 2 1.834 2C21.179 4 22 3.105 22 2s-.82-2-1.833-2z"/></symbol><symbol viewBox="0 0 6.83 3.83" id="icon_arrow_down" xmlns="http://www.w3.org/2000/svg"><defs><style>.bcls-1{fill:#fff}</style></defs><g id="bСлой_2" data-name="Слой 2"><path class="bcls-1" d="M.15.15a.48.48 0 000 .7L3 3.68a.5.5 0 00.44.14.49.49 0 00.44-.14L6.68.85a.48.48 0 000-.7.5.5 0 00-.68 0L3.41 2.71.85.15a.48.48 0 00-.7 0z" id="bСлой_1-2" data-name="Слой 1"/></g></symbol><symbol viewBox="0 0 22 20" id="icon_ask" xmlns="http://www.w3.org/2000/svg"><path fill-rule="evenodd" clip-rule="evenodd" d="M0 0V15.589h4.231V20l1.375-1.137 3.993-3.274H22V0H0zm1.692 1.732h18.616v12.124H9.017l-.238.19-2.856 2.328v-2.518H1.692V1.732zm11.37 2.111l-1.216 1.245 1.798 1.84h-7.72V8.66h7.72l-1.85 1.895L13.01 11.8l3.278-3.383.609-.623-.608-.622-3.227-3.329z"/></symbol><symbol viewBox="0 0 15 19" id="icon_bell" xmlns="http://www.w3.org/2000/svg"><path fill-rule="evenodd" clip-rule="evenodd" d="M7.5 0C6.672 0 6 .654 6 1.462c0 .062.016.122.023.182C3.43 2.29 1.5 4.584 1.5 7.308v6.577c0 .412-.326.73-.75.73H0v1.462h5.39c-.085.23-.14.473-.14.73C5.25 18.01 6.266 19 7.5 19s2.25-.99 2.25-2.192c0-.258-.055-.5-.14-.731H15v-1.462h-.75a.729.729 0 01-.75-.73V7.513c0-2.746-1.882-5.194-4.523-5.869.007-.06.023-.12.023-.182C9 .654 8.328 0 7.5 0zm-.328 2.923c.109-.008.217 0 .328 0h.14c2.45.072 4.36 2.165 4.36 4.59v6.372c0 .258.055.5.14.73H2.86c.085-.23.14-.472.14-.73V7.308c0-2.321 1.834-4.22 4.172-4.385zM7.5 16.077a.73.73 0 01.75.73.73.73 0 01-.75.732.73.73 0 01-.75-.731.73.73 0 01.75-.731z"/></symbol><symbol viewBox="0 0 21 20" id="icon_bookmark" xmlns="http://www.w3.org/2000/svg"><path fill-rule="evenodd" clip-rule="evenodd" d="M10.5 0l-.663 1.512-2.38 5.338-5.81.619L0 7.651l1.235 1.1 4.324 3.917-1.213 5.727L4.003 20l1.441-.825 5.056-2.932 5.056 2.932 1.44.825-.342-1.604-1.213-5.727 4.324-3.918L21 7.651l-1.647-.183-5.81-.618-2.38-5.338L10.5 0zm0 3.597l1.876 4.238.183.39.412.045 4.598.481-3.432 3.093-.32.298.091.412.961 4.514-4.003-2.291-.366-.23-.366.23-4.003 2.29.96-4.513.092-.412-.32-.298L3.43 8.751l4.598-.48.412-.046.183-.39L10.5 3.597z"/></symbol><symbol viewBox="0 0 14.73 14.73" id="icon_close" xmlns="http://www.w3.org/2000/svg"><defs><style>.fcls-1{fill:#2b2b2b}</style></defs><g id="fСлой_2" data-name="Слой 2"><path class="fcls-1" d="M14.43.29a1 1 0 00-1.43 0L7.36 6 1.71.29A1 1 0 00.29 1.71L6 7.36.29 13a1 1 0 001.42 1.41l5.65-5.63L13 14.43A1 1 0 1014.44 13L8.78 7.36l5.65-5.65a1 1 0 000-1.42z" id="fСлой_1-2" data-name="Слой 1"/></g></symbol><symbol viewBox="0 0 42 42" id="icon_new_payment" xmlns="http://www.w3.org/2000/svg"><path fill-rule="evenodd" clip-rule="evenodd" d="M21 42c11.598 0 21-9.402 21-21S32.598 0 21 0 0 9.402 0 21s9.402 21 21 21zm-1-30a1 1 0 112 0v8h8a1 1 0 110 2h-8v8a1 1 0 11-2 0v-8h-8a1 1 0 110-2h8v-8z"/></symbol><symbol viewBox="0 0 17 17" id="icon_profile" xmlns="http://www.w3.org/2000/svg"><path fill-rule="evenodd" clip-rule="evenodd" d="M8.5 0l-.177.044L.53 2.166 0 2.321V17h7.792v-2.83h1.416V17H17V2.322l-.531-.156L8.677.044 8.5 0zm0 1.459l7.083 1.923v12.203h-4.958V12.756h-4.25V15.584H1.417V3.382L8.5 1.46zM3.542 4.267V5.68h1.416V4.267H3.542zm2.833 0V5.68h1.417V4.267H6.375zm2.833 0V5.68h1.417V4.267H9.208zm2.834 0V5.68h1.416V4.267h-1.416zm-8.5 2.83V8.51h1.416V7.096H3.542zm2.833 0V8.51h1.417V7.096H6.375zm2.833 0V8.51h1.417V7.096H9.208zm2.834 0V8.51h1.416V7.096h-1.416zm-8.5 2.829v1.415h1.416V9.926H3.542zm2.833 0v1.415h1.417V9.926H6.375zm2.833 0v1.415h1.417V9.926H9.208zm2.834 0v1.415h1.416V9.926h-1.416zm-8.5 2.83v1.414h1.416v-1.415H3.542zm8.5 0v1.414h1.416v-1.415h-1.416z"/></symbol><symbol viewBox="0 0 20 20" id="icon_repeat" xmlns="http://www.w3.org/2000/svg"><path fill-rule="evenodd" clip-rule="evenodd" d="M10 0v1.667A8.32 8.32 0 0118.333 10 8.32 8.32 0 0110 18.333 8.32 8.32 0 011.667 10c0-2.722 1.32-5.122 3.333-6.64V7.5h1.667V.833H0V2.5h3.411C1.328 4.332 0 7.014 0 10c0 5.513 4.487 10 10 10s10-4.487 10-10S15.513 0 10 0z"/></symbol><symbol viewBox="0 0 18 18" id="icon_search" xmlns="http://www.w3.org/2000/svg"><path fill-rule="evenodd" clip-rule="evenodd" d="M11.001 0C7.144 0 4.002 3.142 4.002 6.999c0 1.676.588 3.21 1.575 4.418L0 16.994 1.006 18l5.577-5.577a6.943 6.943 0 004.418 1.575c3.857 0 6.999-3.142 6.999-7C18 3.143 14.858 0 11.001 0zm0 1.4c3.1 0 5.6 2.498 5.6 5.599 0 3.1-2.5 5.599-5.6 5.599a5.588 5.588 0 01-5.599-5.6c0-3.1 2.499-5.598 5.6-5.598z"/></symbol><symbol viewBox="0 0 24 24" id="logo" xmlns="http://www.w3.org/2000/svg"><path d="M14.4 14.4V9.6H9.6V4.8H4.8V0H0v9.6h4.8v4.8H0V24h4.8v-4.8h4.8v-4.8h4.8z"/><path d="M19.2 14.4h-4.8v4.8h4.8v-4.8zM24 19.2h-4.8V24H24v-4.8zM14.4 19.2H9.6V24h4.8v-4.8zM19.2 4.8V0H9.6v4.8h4.8v4.8h4.8v4.8H24V4.8h-4.8z"/></symbol></svg>